<mxfile host="65bd71144e">
    <diagram id="hafGD2FYq9tdRyy5QDzc" name="Página-1">
        <mxGraphModel dx="797" dy="635" grid="1" gridSize="10" guides="1" tooltips="1" connect="1" arrows="1" fold="1" page="1" pageScale="1" pageWidth="827" pageHeight="1169" math="0" shadow="0">
            <root>
                <mxCell id="0"/>
                <mxCell id="1" parent="0"/>
                <mxCell id="13" value="Tela Home Pedidos" style="ellipse;whiteSpace=wrap;html=1;fillColor=#e6d0de;strokeColor=#996185;fontStyle=0;gradientColor=#d5739d;fontColor=#000000;" parent="1" vertex="1">
                    <mxGeometry x="15" y="111" width="120" height="80" as="geometry"/>
                </mxCell>
                <mxCell id="27" style="edgeStyle=none;html=1;exitX=1;exitY=0.5;exitDx=0;exitDy=0;entryX=0;entryY=0.5;entryDx=0;entryDy=0;fontColor=#000000;" parent="1" source="13" target="26" edge="1">
                    <mxGeometry relative="1" as="geometry">
                        <mxPoint x="225" y="151" as="sourcePoint"/>
                    </mxGeometry>
                </mxCell>
                <mxCell id="31" style="edgeStyle=none;html=1;entryX=0;entryY=0.5;entryDx=0;entryDy=0;fontColor=#000000;" parent="1" source="26" target="30" edge="1">
                    <mxGeometry relative="1" as="geometry"/>
                </mxCell>
                <mxCell id="26" value="Consultar pedidos" style="shape=process;whiteSpace=wrap;html=1;backgroundOutline=1;fillColor=#d5e8d4;gradientColor=#97d077;strokeColor=#82b366;fontColor=#000000;" parent="1" vertex="1">
                    <mxGeometry x="164" y="121" width="120" height="60" as="geometry"/>
                </mxCell>
                <mxCell id="32" value="Sim" style="edgeStyle=orthogonalEdgeStyle;html=1;exitX=1;exitY=0.5;exitDx=0;exitDy=0;fontColor=#FFFFFF;entryX=0.5;entryY=0;entryDx=0;entryDy=0;" parent="1" source="30" target="36" edge="1">
                    <mxGeometry x="-0.2" relative="1" as="geometry">
                        <mxPoint x="439" y="151" as="targetPoint"/>
                        <mxPoint as="offset"/>
                    </mxGeometry>
                </mxCell>
                <mxCell id="33" value="Não" style="edgeStyle=none;html=1;fontColor=#FFFFFF;exitX=0.5;exitY=0;exitDx=0;exitDy=0;entryX=0;entryY=0;entryDx=69.375;entryDy=60;entryPerimeter=0;" parent="1" source="30" target="34" edge="1">
                    <mxGeometry relative="1" as="geometry">
                        <mxPoint x="499" y="111" as="targetPoint"/>
                        <mxPoint x="359" y="101" as="sourcePoint"/>
                        <mxPoint as="offset"/>
                    </mxGeometry>
                </mxCell>
                <mxCell id="30" value="Consultou?" style="rhombus;whiteSpace=wrap;html=1;fillColor=#f5f5f5;gradientColor=#b3b3b3;strokeColor=#666666;fontColor=#000000;" parent="1" vertex="1">
                    <mxGeometry x="319" y="111" width="80" height="80" as="geometry"/>
                </mxCell>
                <mxCell id="34" value="Mensagem erro ao consultar" style="shape=display;whiteSpace=wrap;html=1;fillColor=#f8cecc;gradientColor=#ea6b66;strokeColor=#b85450;fontColor=#000000;" parent="1" vertex="1">
                    <mxGeometry x="291.5" width="135" height="60" as="geometry"/>
                </mxCell>
                <mxCell id="48" style="edgeStyle=none;html=1;exitX=0.5;exitY=1;exitDx=0;exitDy=0;entryX=0.5;entryY=0;entryDx=0;entryDy=0;" parent="1" source="36" target="49" edge="1">
                    <mxGeometry relative="1" as="geometry">
                        <mxPoint x="459" y="280" as="targetPoint"/>
                    </mxGeometry>
                </mxCell>
                <mxCell id="36" value="Tratar listagem" style="shape=process;whiteSpace=wrap;html=1;backgroundOutline=1;fillColor=#d5e8d4;gradientColor=#97d077;strokeColor=#82b366;fontColor=#000000;" parent="1" vertex="1">
                    <mxGeometry x="399" y="181" width="120" height="60" as="geometry"/>
                </mxCell>
                <mxCell id="52" style="edgeStyle=orthogonalEdgeStyle;html=1;exitX=0.25;exitY=1;exitDx=0;exitDy=0;entryX=1;entryY=0.5;entryDx=0;entryDy=0;" parent="1" source="49" target="50" edge="1">
                    <mxGeometry relative="1" as="geometry"/>
                </mxCell>
                <mxCell id="61" style="edgeStyle=orthogonalEdgeStyle;html=1;exitX=0;exitY=0.5;exitDx=0;exitDy=0;entryX=1;entryY=0.5;entryDx=0;entryDy=0;startArrow=none;startFill=0;" parent="1" source="49" target="59" edge="1">
                    <mxGeometry relative="1" as="geometry"/>
                </mxCell>
                <mxCell id="64" style="edgeStyle=orthogonalEdgeStyle;html=1;exitX=1;exitY=0.5;exitDx=0;exitDy=0;entryX=0;entryY=0.5;entryDx=0;entryDy=0;startArrow=none;startFill=0;" parent="1" source="49" target="63" edge="1">
                    <mxGeometry relative="1" as="geometry"/>
                </mxCell>
                <mxCell id="49" value="Exibir lista dos pedidos" style="whiteSpace=wrap;html=1;fillColor=#e6d0de;strokeColor=#996185;fontColor=#000000;fontStyle=0;gradientColor=#d5739d;" parent="1" vertex="1">
                    <mxGeometry x="399" y="272" width="120" height="60" as="geometry"/>
                </mxCell>
                <mxCell id="56" style="edgeStyle=none;html=1;exitX=0;exitY=0.5;exitDx=0;exitDy=0;entryX=1;entryY=0.5;entryDx=0;entryDy=0;startArrow=none;startFill=0;" parent="1" source="50" target="53" edge="1">
                    <mxGeometry relative="1" as="geometry"/>
                </mxCell>
                <mxCell id="50" value="Alterou filtros" style="whiteSpace=wrap;html=1;fillColor=#e6d0de;strokeColor=#996185;fontColor=#000000;fontStyle=0;gradientColor=#d5739d;" parent="1" vertex="1">
                    <mxGeometry x="205" y="356" width="120" height="60" as="geometry"/>
                </mxCell>
                <mxCell id="57" style="edgeStyle=orthogonalEdgeStyle;html=1;exitX=0.5;exitY=0;exitDx=0;exitDy=0;entryX=0.25;entryY=1;entryDx=0;entryDy=0;startArrow=none;startFill=0;" parent="1" source="53" target="26" edge="1">
                    <mxGeometry relative="1" as="geometry"/>
                </mxCell>
                <mxCell id="53" value="Clicou em filtrar" style="shape=process;whiteSpace=wrap;html=1;backgroundOutline=1;fillColor=#d5e8d4;gradientColor=#97d077;strokeColor=#82b366;fontColor=#000000;" parent="1" vertex="1">
                    <mxGeometry x="51" y="356" width="120" height="60" as="geometry"/>
                </mxCell>
                <mxCell id="55" style="edgeStyle=none;html=1;exitX=0.55;exitY=0.95;exitDx=0;exitDy=0;exitPerimeter=0;entryX=0.5;entryY=0;entryDx=0;entryDy=0;startArrow=classic;startFill=1;" parent="1" source="54" target="26" edge="1">
                    <mxGeometry relative="1" as="geometry"/>
                </mxCell>
                <mxCell id="54" value="API" style="ellipse;shape=cloud;whiteSpace=wrap;html=1;fillColor=#fad7ac;strokeColor=#b46504;fontColor=#000000;" parent="1" vertex="1">
                    <mxGeometry x="120" y="11" width="120" height="80" as="geometry"/>
                </mxCell>
                <mxCell id="62" style="edgeStyle=orthogonalEdgeStyle;html=1;exitX=0.5;exitY=0;exitDx=0;exitDy=0;entryX=0.5;entryY=1;entryDx=0;entryDy=0;startArrow=none;startFill=0;" parent="1" source="59" target="26" edge="1">
                    <mxGeometry relative="1" as="geometry"/>
                </mxCell>
                <mxCell id="59" value="Alterou paginação" style="shape=process;whiteSpace=wrap;html=1;backgroundOutline=1;fillColor=#d5e8d4;gradientColor=#97d077;strokeColor=#82b366;fontColor=#000000;" parent="1" vertex="1">
                    <mxGeometry x="205" y="272" width="120" height="60" as="geometry"/>
                </mxCell>
                <mxCell id="67" style="edgeStyle=orthogonalEdgeStyle;html=1;exitX=0.5;exitY=0;exitDx=0;exitDy=0;entryX=0.5;entryY=1;entryDx=0;entryDy=0;startArrow=none;startFill=0;" parent="1" source="63" target="66" edge="1">
                    <mxGeometry relative="1" as="geometry"/>
                </mxCell>
                <mxCell id="63" value="Alterar status do pedido: Confirmar, Cancelar e Concluir" style="shape=process;whiteSpace=wrap;html=1;backgroundOutline=1;fillColor=#d5e8d4;gradientColor=#97d077;strokeColor=#82b366;fontColor=#000000;" parent="1" vertex="1">
                    <mxGeometry x="560" y="272" width="140" height="60" as="geometry"/>
                </mxCell>
                <mxCell id="68" value="Não" style="html=1;exitX=1;exitY=0.5;exitDx=0;exitDy=0;startArrow=none;startFill=0;entryX=0;entryY=0;entryDx=105;entryDy=60;entryPerimeter=0;" parent="1" source="66" target="69" edge="1">
                    <mxGeometry x="0.295" y="1" relative="1" as="geometry">
                        <mxPoint x="730" y="201" as="targetPoint"/>
                        <mxPoint as="offset"/>
                    </mxGeometry>
                </mxCell>
                <mxCell id="76" value="Sim" style="edgeStyle=orthogonalEdgeStyle;html=1;exitX=0.5;exitY=0;exitDx=0;exitDy=0;entryX=1;entryY=0.5;entryDx=0;entryDy=0;entryPerimeter=0;" parent="1" source="66" target="75" edge="1">
                    <mxGeometry x="-0.375" relative="1" as="geometry">
                        <mxPoint as="offset"/>
                    </mxGeometry>
                </mxCell>
                <mxCell id="66" value="Alterou?" style="rhombus;whiteSpace=wrap;html=1;fillColor=#f5f5f5;gradientColor=#b3b3b3;strokeColor=#666666;fontColor=#000000;" parent="1" vertex="1">
                    <mxGeometry x="550" y="150" width="80" height="80" as="geometry"/>
                </mxCell>
                <mxCell id="69" value="Mensagem erro ao consultar" style="shape=display;whiteSpace=wrap;html=1;fillColor=#f8cecc;gradientColor=#ea6b66;strokeColor=#b85450;fontColor=#000000;" parent="1" vertex="1">
                    <mxGeometry x="590" y="11" width="135" height="60" as="geometry"/>
                </mxCell>
                <mxCell id="73" value="API" style="ellipse;shape=cloud;whiteSpace=wrap;html=1;fillColor=#fad7ac;strokeColor=#b46504;fontColor=#000000;" parent="1" vertex="1">
                    <mxGeometry x="650" y="150" width="120" height="80" as="geometry"/>
                </mxCell>
                <mxCell id="74" style="edgeStyle=none;html=1;exitX=0.31;exitY=0.8;exitDx=0;exitDy=0;exitPerimeter=0;entryX=0.75;entryY=0;entryDx=0;entryDy=0;startArrow=classic;startFill=1;" parent="1" source="73" target="63" edge="1">
                    <mxGeometry relative="1" as="geometry">
                        <mxPoint x="711" y="350" as="sourcePoint"/>
                        <mxPoint x="749" y="384" as="targetPoint"/>
                    </mxGeometry>
                </mxCell>
                <mxCell id="77" style="edgeStyle=orthogonalEdgeStyle;html=1;exitX=0;exitY=0.5;exitDx=0;exitDy=0;exitPerimeter=0;entryX=0.75;entryY=0;entryDx=0;entryDy=0;jumpStyle=arc;" parent="1" source="75" target="26" edge="1">
                    <mxGeometry relative="1" as="geometry"/>
                </mxCell>
                <mxCell id="75" value="Mensagem sucesso ao alterar" style="shape=display;whiteSpace=wrap;html=1;fillColor=#f8cecc;gradientColor=#ea6b66;strokeColor=#b85450;fontColor=#000000;" parent="1" vertex="1">
                    <mxGeometry x="425" y="71" width="135" height="60" as="geometry"/>
                </mxCell>
            </root>
        </mxGraphModel>
    </diagram>
</mxfile>